{
    "accessors" : [
        {
            "bufferView" : 0, 
            "componentType" : 5121, 
            "count" : 240, 
            "max" : [
                239
            ], 
            "min" : [
                0
            ], 
            "type" : "SCALAR"
        }, 
        {
            "bufferView" : 1, 
            "componentType" : 5126, 
            "count" : 240, 
            "max" : [
                1.1066184043884277, 
                0.7197527885437012, 
                1.0787513256072998
            ], 
            "min" : [
                -1.094789981842041, 
                -0.7181887626647949, 
                -0.9999999403953552
            ], 
            "type" : "VEC3"
        }, 
        {
            "bufferView" : 2, 
            "componentType" : 5126, 
            "count" : 240, 
            "max" : [
                0.9691603779792786, 
                0.977267324924469, 
                0.9435215592384338
            ], 
            "min" : [
                -0.9920774102210999, 
                -0.9993788599967957, 
                -0.9639535546302795
            ], 
            "type" : "VEC3"
        }
    ], 
    "asset" : {
        "generator" : "Khronos Blender glTF 2.0 exporter", 
        "version" : "2.0"
    }, 
    "bufferViews" : [
        {
            "buffer" : 0, 
            "byteLength" : 240, 
            "byteOffset" : 0, 
            "target" : 34963
        }, 
        {
            "buffer" : 0, 
            "byteLength" : 2880, 
            "byteOffset" : 240, 
            "target" : 34962
        }, 
        {
            "buffer" : 0, 
            "byteLength" : 2880, 
            "byteOffset" : 3120, 
            "target" : 34962
        }
    ], 
    "buffers" : [
        {
            "byteLength" : 6000, 
            "uri" : "rock.bin"
        }
    ], 
    "materials" : [
        {
            "name" : "Stone", 
            "pbrMetallicRoughness" : {
                "baseColorFactor" : [
                    0.2065463335297455, 
                    0.21308451016373198, 
                    0.15569427245399758, 
                    1.0
                ], 
                "metallicFactor" : 0.0
            }
        }
    ], 
    "meshes" : [
        {
            "name" : "Icosphere.000", 
            "primitives" : [
                {
                    "attributes" : {
                        "NORMAL" : 2, 
                        "POSITION" : 1
                    }, 
                    "indices" : 0, 
                    "material" : 0
                }
            ]
        }
    ], 
    "nodes" : [
        {
            "mesh" : 0, 
            "name" : "Icosphere.020", 
            "scale" : [
                0.3362998366355896, 
                0.3362998366355896, 
                0.3362998366355896
            ], 
            "translation" : [
                12.337983131408691, 
                0.5719966888427734, 
                -0.98949134349823
            ]
        }
    ], 
    "scene" : 0, 
    "scenes" : [
        {
            "name" : "Scene", 
            "nodes" : [
                0
            ]
        }
    ]
}
